HIERARCHY
ROOT hip
{
  OFFSET -165.366 71.4021 -45.0797
  CHANNELS 6 Xposition Yposition Zposition Zrotation Xrotation Yrotation
  JOINT abdomen
  {
    OFFSET 0 20.6881 -0.73152
    CHANNELS 3 Zrotation Xrotation Yrotation
    JOINT chest
    {
      OFFSET 0 11.7043 -0.48768
      CHANNELS 3 Zrotation Xrotation Yrotation
      JOINT neck
      {
        OFFSET 0 22.1894 -2.19456
        CHANNELS 3 Zrotation Xrotation Yrotation
        JOINT head
        {
          OFFSET -0.24384 7.07133 1.2192
          CHANNELS 3 Zrotation Xrotation Yrotation
          JOINT leftEye
          {
            OFFSET 4.14528 8.04674 8.04672
            CHANNELS 3 Zrotation Xrotation Yrotation
            End Site
            {
              OFFSET 1 0 0
            }
          }
          JOINT rightEye
          {
            OFFSET -3.6576 8.04674 8.04672
            CHANNELS 3 Zrotation Xrotation Yrotation
            End Site
            {
              OFFSET 1 0 0
            }
          }
        }
      }
      JOINT rCollar
      {
        OFFSET -2.68224 19.2634 -4.8768
        CHANNELS 3 Zrotation Xrotation Yrotation
        JOINT rShldr
        {
          OFFSET -8.77824 -1.95073 1.46304
          CHANNELS 3 Zrotation Xrotation Yrotation
          JOINT rForeArm
          {
            OFFSET -28.1742 -1.7115 0.48768
            CHANNELS 3 Zrotation Xrotation Yrotation
            JOINT rHand
            {
              OFFSET -22.5879 0.773209 7.07136
              CHANNELS 3 Zrotation Xrotation Yrotation
              JOINT rThumb1
              {
                OFFSET -1.2192 -0.487915 3.41376
                CHANNELS 3 Zrotation Xrotation Yrotation
                JOINT rThumb2
                {
                  OFFSET -3.37035 -0.52449 3.41376
                  CHANNELS 3 Zrotation Xrotation Yrotation
                  End Site
                  {
                    OFFSET -1.78271 -1.18214 1.43049
                  }
                }
              }
              JOINT rIndex1
              {
                OFFSET -7.75947 0.938293 5.60832
                CHANNELS 3 Zrotation Xrotation Yrotation
                JOINT rIndex2
                {
                  OFFSET -2.54057 -0.884171 1.56538
                  CHANNELS 3 Zrotation Xrotation Yrotation
                  End Site
                  {
                    OFFSET -1.62519 -0.234802 1.16502
                  }
                }
              }
              JOINT rMid1
              {
                OFFSET -8.24714 1.18213 3.41376
                CHANNELS 3 Zrotation Xrotation Yrotation
                JOINT rMid2
                {
                  OFFSET -3.10165 -0.590103 1.0647
                  CHANNELS 3 Zrotation Xrotation Yrotation
                  End Site
                  {
                    OFFSET -2.48547 -0.328903 0.83742
                  }
                }
              }
              JOINT rRing1
              {
                OFFSET -8.82822 0.546677 1.51678
                CHANNELS 3 Zrotation Xrotation Yrotation
                JOINT rRing2
                {
                  OFFSET -2.60934 -0.819778 -0.0198488
                  CHANNELS 3 Zrotation Xrotation Yrotation
                  End Site
                  {
                    OFFSET -2.33842 -0.294052 0.168128
                  }
                }
              }
              JOINT rPinky1
              {
                OFFSET -8.27202 -0.0477905 -0.4584
                CHANNELS 3 Zrotation Xrotation Yrotation
                JOINT rPinky2
                {
                  OFFSET -1.82734 -0.647385 -0.700984
                  CHANNELS 3 Zrotation Xrotation Yrotation
                  End Site
                  {
                    OFFSET -1.69225 -0.51767 -0.607171
                  }
                }
              }
            }
          }
        }
      }
      JOINT lCollar
      {
        OFFSET 2.68224 19.2634 -4.8768
        CHANNELS 3 Zrotation Xrotation Yrotation
        JOINT lShldr
        {
          OFFSET 8.77824 -1.95073 1.46304
          CHANNELS 3 Zrotation Xrotation Yrotation
          JOINT lForeArm
          {
            OFFSET 28.1742 -1.7115 0.48768
            CHANNELS 3 Zrotation Xrotation Yrotation
            JOINT lHand
            {
              OFFSET 22.5879 0.773209 7.07136
              CHANNELS 3 Zrotation Xrotation Yrotation
              JOINT lThumb1
              {
                OFFSET 1.2192 -0.487915 3.41376
                CHANNELS 3 Zrotation Xrotation Yrotation
                JOINT lThumb2
                {
                  OFFSET 3.37035 -0.52449 3.41376
                  CHANNELS 3 Zrotation Xrotation Yrotation
                  End Site
                  {
                    OFFSET 1.78271 -1.18214 1.43049
                  }
                }
              }
              JOINT lIndex1
              {
                OFFSET 7.75947 0.938293 5.60832
                CHANNELS 3 Zrotation Xrotation Yrotation
                JOINT lIndex2
                {
                  OFFSET 2.54057 -0.884171 1.56538
                  CHANNELS 3 Zrotation Xrotation Yrotation
                  End Site
                  {
                    OFFSET 1.62519 -0.234802 1.16502
                  }
                }
              }
              JOINT lMid1
              {
                OFFSET 8.24714 1.18213 3.41376
                CHANNELS 3 Zrotation Xrotation Yrotation
                JOINT lMid2
                {
                  OFFSET 3.10165 -0.590103 1.0647
                  CHANNELS 3 Zrotation Xrotation Yrotation
                  End Site
                  {
                    OFFSET 2.48547 -0.328903 0.83742
                  }
                }
              }
              JOINT lRing1
              {
                OFFSET 8.82822 0.546677 1.51678
                CHANNELS 3 Zrotation Xrotation Yrotation
                JOINT lRing2
                {
                  OFFSET 2.60934 -0.819778 -0.0198488
                  CHANNELS 3 Zrotation Xrotation Yrotation
                  End Site
                  {
                    OFFSET 2.33842 -0.294052 0.168128
                  }
                }
              }
              JOINT lPinky1
              {
                OFFSET 8.27202 -0.0477905 -0.4584
                CHANNELS 3 Zrotation Xrotation Yrotation
                JOINT lPinky2
                {
                  OFFSET 1.82734 -0.647385 -0.700984
                  CHANNELS 3 Zrotation Xrotation Yrotation
                  End Site
                  {
                    OFFSET 1.69225 -0.51767 -0.607171
                  }
                }
              }
            }
          }
        }
      }
    }
  }
  JOINT rButtock
  {
    OFFSET -8.77824 4.35084 1.2192
    CHANNELS 3 Zrotation Xrotation Yrotation
    JOINT rThigh
    {
      OFFSET 0 -1.70687 -2.19456
      CHANNELS 3 Zrotation Xrotation Yrotation
      JOINT rShin
      {
        OFFSET 0 -36.8199 0.73152
        CHANNELS 3 Zrotation Xrotation Yrotation
        JOINT rFoot
        {
          OFFSET 0.73152 -45.1104 -5.12064
          CHANNELS 3 Zrotation Xrotation Yrotation
          End Site
          {
            OFFSET -1.1221 -3.69964 12.103
          }
        }
      }
    }
  }
  JOINT lButtock
  {
    OFFSET 8.77824 4.35084 1.2192
    CHANNELS 3 Zrotation Xrotation Yrotation
    JOINT lThigh
    {
      OFFSET 0 -1.70687 -2.19456
      CHANNELS 3 Zrotation Xrotation Yrotation
      JOINT lShin
      {
        OFFSET 0 -36.8199 0.73152
        CHANNELS 3 Zrotation Xrotation Yrotation
        JOINT lFoot
        {
          OFFSET -0.73152 -45.1104 -5.12064
          CHANNELS 3 Zrotation Xrotation Yrotation
          End Site
          {
            OFFSET 1.1221 -3.69964 12.103
          }
        }
      }
    }
  }
}
MOTION
Frames:	6
Frame Time:	0.00833333
172.779 83.185 77.5601 2.38048 0.0111362 -0.0455976 -3.13123 0.0020855 -0.0845039 -0.863237 0.0181967 -0.149333 6.0254e-014 0 -8.44835e-016 1.80922e-013 3.18055e-015 -2.23943e-015 -0 0 0 -0 0 0 3.04654e-014 3.4535e-016 -1.49089e-016 6.38136e-013 7.20594e-015 -5.96354e-015 1.09637e-011 -3.02014e-012 -2.70347e-013 1.25329e-010 4.61571e-012 -1.50122e-012 2.95653e-010 3.46441e-012 -3.85483e-012 5.10568e-010 5.9858e-012 -6.67678e-012 2.95655e-010 3.46243e-012 -3.87073e-012 7.73091 5.47488 0.417314 2.95651e-010 3.46412e-012 -3.86119e-012 2.90554 0.965183 0.102902 2.95655e-010 3.46452e-012 -3.8596e-012 10.2786 0.731801 0.0259123 2.95648e-010 3.46879e-012 -3.85483e-012 2.22167 -0.733487 -0.20892 3.03647e-014 3.50203e-016 -5.46658e-016 6.3406e-013 6.77731e-015 -7.7526e-015 1.09444e-011 3.51968e-012 -2.57625e-013 1.25317e-010 -1.94705e-012 -1.51076e-012 2.95595e-010 3.41995e-012 -3.86755e-012 5.10485e-010 5.90947e-012 -6.6895e-012 2.95594e-010 3.4179e-012 -3.85801e-012 -7.73091 5.47488 -0.417314 2.95596e-010 3.41939e-012 -3.87392e-012 -2.90554 0.965183 -0.102902 2.95592e-010 3.41969e-012 -3.86994e-012 -10.2786 0.731801 -0.0259123 2.95604e-010 3.42267e-012 -3.88664e-012 -2.22167 -0.733487 0.20892 -2.03217e-016 0 -3.88251e-019 -1.91832 -1.93503 0.0146168 -0.00850406 -2.07867 -0.0697915 -0.459154 4.0001 0.132531 2.03217e-016 0 3.88251e-019 -2.83775 -9.32631 0.322318 -0.00902792 11.308 -0.235108 0.526848 -1.99514 -0.0183117 
168.649 82.3716 64.6427 3.10639 -1.02292 40.5108 -2.94687 3.50001 1.10902 -0.447828 1.30271 0.0516678 -3.09084 2.72201 0.681766 5.27179 -9.28209 3.13982 -0 0 0 -0 0 0 1.55191e-014 5.2196e-014 -8.04014e-014 23.0988 3.73458 2.01655 -3.44806 -1.43933 5.51594 0.0470798 4.82229 0.669124 1.4475e-009 6.03013e-010 -4.68253e-010 2.49303e-009 1.06544e-009 -8.2845e-010 1.4475e-009 6.03011e-010 -4.68265e-010 7.73091 5.47488 0.417314 1.4475e-009 6.03013e-010 -4.68255e-010 2.90554 0.965183 0.102902 1.4475e-009 6.03014e-010 -4.68257e-010 10.2786 0.731801 0.0259123 1.44749e-009 6.03017e-010 -4.68251e-010 2.22167 -0.733487 -0.20892 1.54433e-014 5.21992e-014 -8.07582e-014 -23.5912 4.92365 -2.31204 3.39526 -1.40594 -5.44557 -0.0036969 -1.54639 0.217214 8.85448e-010 1.22894e-009 1.33508e-010 1.53291e-009 2.12897e-009 2.30932e-010 8.85446e-010 1.22894e-009 1.33514e-010 -7.73091 5.47488 -0.417314 8.85447e-010 1.22894e-009 1.33499e-010 -2.90554 0.965183 -0.102902 8.85443e-010 1.22894e-009 1.33504e-010 -10.2786 0.731801 -0.0259123 8.85455e-010 1.22895e-009 1.33489e-010 -2.22167 -0.733487 0.20892 -2.03217e-016 0 -3.88251e-019 -2.4551 -3.07338 -2.01445 0.0237517 8.50904 0.11474 -1.47609 -2.24391 -5.76593 2.03217e-016 0 3.88251e-019 1.49061 -10.9709 5.40173 0.0421987 20.9906 -0.34876 1.06726 -6.16951 2.64 
168.519 82.3227 64.5378 4.84947 -0.321454 83.3602 -2.9241 7.18861 2.38515 -0.0150909 2.66478 0.263767 -6.43007 5.60503 1.40349 12.0102 -19.0055 6.73597 -0 0 0 -0 0 0 1.9529e-016 1.07396e-013 -1.67557e-013 47.2351 7.64888 4.17958 -6.78854 -2.91341 11.3506 -0.0275422 9.94618 1.39641 2.73126e-009 1.30332e-009 -9.9471e-010 4.70244e-009 2.30181e-009 -1.75963e-009 2.73127e-009 1.30332e-009 -9.94716e-010 7.73091 5.47488 0.417314 2.73126e-009 1.30332e-009 -9.94706e-010 2.90554 0.965183 0.102902 2.73127e-009 1.30333e-009 -9.94711e-010 10.2786 0.731801 0.0259123 2.73126e-009 1.30333e-009 -9.94705e-010 2.22167 -0.733487 -0.20892 1.46376e-016 1.07397e-013 -1.67871e-013 -48.1105 10.0388 -4.83586 6.65358 -2.82219 -11.1496 0.00579595 -3.09358 0.435188 1.52814e-009 2.59805e-009 2.65775e-010 2.6472e-009 4.50094e-009 4.59564e-010 1.52814e-009 2.59804e-009 2.65778e-010 -7.73091 5.47488 -0.417314 1.52814e-009 2.59804e-009 2.65763e-010 -2.90554 0.965183 -0.102902 1.52813e-009 2.59804e-009 2.65769e-010 -10.2786 0.731801 -0.0259123 1.52815e-009 2.59805e-009 2.65756e-010 -2.22167 -0.733487 0.20892 -2.03217e-016 0 -3.88251e-019 -3.11486 -4.26127 -4.16024 -0.0197191 19.6968 0.326545 -3.95238 -8.70763 -12.1111 2.03217e-016 0 3.88251e-019 6.37687 -12.5811 10.8272 0.146317 31.2041 -0.497566 2.06252 -10.5302 5.50813 
168.34 82.2793 64.4407 5.39473 2.12523 121.536 -3.02123 10.4781 3.54911 0.355908 3.87161 0.454666 -9.46849 8.16137 2.0639 19.1805 -27.4899 10.4918 -0 0 0 -0 0 0 -1.43734e-014 1.55897e-013 -2.40906e-013 68.4965 11.1477 6.15332 -9.52378 -4.15818 16.5875 -0.20599 14.4588 2.06572 3.75119e-009 1.80211e-009 -1.39705e-009 6.45794e-009 3.18434e-009 -2.472e-009 3.75119e-009 1.80211e-009 -1.39705e-009 7.73091 5.47488 0.417314 3.75119e-009 1.80211e-009 -1.39704e-009 2.90554 0.965183 0.102902 3.75119e-009 1.80211e-009 -1.39705e-009 10.2786 0.731801 0.0259123 3.75119e-009 1.80211e-009 -1.39704e-009 2.22167 -0.733487 -0.20892 -1.43993e-014 1.55897e-013 -2.41181e-013 -69.5507 14.6731 -7.14468 9.39439 -4.06569 -16.3741 0.024182 -4.63889 0.653547 2.06515e-009 3.67999e-009 4.08258e-010 3.57776e-009 6.37508e-009 7.06174e-010 2.06515e-009 3.67999e-009 4.08258e-010 -7.73091 5.47488 -0.417314 2.06515e-009 3.67999e-009 4.08245e-010 -2.90554 0.965183 -0.102902 2.06515e-009 3.67999e-009 4.08251e-010 -10.2786 0.731801 -0.0259123 2.06516e-009 3.67999e-009 4.0824e-010 -2.22167 -0.733487 0.20892 -2.03217e-016 0 -3.88251e-019 -3.77094 -5.32572 -6.09026 -0.139433 29.6833 0.552415 -7.39289 -14.0644 -18.1097 2.03217e-016 0 3.88251e-019 11.0288 -13.884 15.7434 0.300316 40.3546 -0.676812 3.33906 -14.3964 8.16889 
168.141 82.2003 64.3531 4.36172 4.21891 148.248 -3.10425 12.7869 4.38226 0.591692 4.69043 0.591558 -11.617 9.90535 2.55339 24.961 -33.21 13.6353 -0 0 0 -0 0 0 -2.7054e-014 1.87653e-013 -2.7974e-013 83.1344 13.6609 7.5572 -11.3155 -4.98005 20.2928 -0.38871 17.4514 2.53223 4.1115e-009 1.79708e-009 -1.4891e-009 7.07869e-009 3.18228e-009 -2.63733e-009 4.11151e-009 1.79708e-009 -1.48911e-009 7.73091 5.47488 0.417314 4.1115e-009 1.79708e-009 -1.48909e-009 2.90554 0.965183 0.102902 4.1115e-009 1.79708e-009 -1.4891e-009 10.2786 0.731801 0.0259123 4.1115e-009 1.79709e-009 -1.4891e-009 2.22167 -0.733487 -0.20892 -2.70669e-014 1.87653e-013 -2.79988e-013 -84.1588 18.1997 -8.72584 11.3551 -5.0066 -20.3687 0.0470662 -6.17963 0.871907 2.33797e-009 4.04406e-009 5.76282e-010 4.049e-009 7.00466e-009 9.97726e-010 2.33797e-009 4.04406e-009 5.76282e-010 -7.73091 5.47488 -0.417314 2.33797e-009 4.04406e-009 5.76269e-010 -2.90554 0.965183 -0.102902 2.33796e-009 4.04406e-009 5.76275e-010 -10.2786 0.731801 -0.0259123 2.33797e-009 4.04406e-009 5.76266e-010 -2.22167 -0.733487 0.20892 -2.03217e-016 0 -3.88251e-019 -4.25056 -6.10248 -7.46655 -0.282398 36.6682 0.746435 -10.4708 -17.3208 -22.6364 2.03217e-016 0 3.88251e-019 14.4871 -14.7196 19.2511 0.461548 46.8485 -0.850221 4.48033 -17.1373 10.1233 
167.989 82.0298 64.2471 3.44452 4.97381 158.893 -3.0179 13.7298 4.71217 0.642083 4.97241 0.651451 -12.4743 10.5255 2.79316 27.4556 -35.349 15.1155 -0 0 0 -0 0 0 -3.80053e-014 1.97081e-013 -2.61158e-013 88.7704 14.813 8.10946 -12.0165 -5.30488 21.8061 -0.458844 18.3346 2.67538 3.38093e-009 9.24777e-010 -1.09789e-009 5.82238e-009 1.65848e-009 -1.94983e-009 3.38094e-009 9.24774e-010 -1.0979e-009 7.73091 5.47488 0.417314 3.38093e-009 9.24777e-010 -1.09788e-009 2.90554 0.965183 0.102902 3.38094e-009 9.24779e-010 -1.09789e-009 10.2786 0.731801 0.0259123 3.38093e-009 9.24782e-010 -1.09788e-009 2.22167 -0.733487 -0.20892 -3.80164e-014 1.97085e-013 -2.61393e-013 -89.5954 20.2654 -9.18235 12.4297 -5.59726 -22.6097 0.0733792 -7.76509 1.09768 2.18959e-009 3.22737e-009 8.61209e-010 3.78717e-009 5.58692e-009 1.4926e-009 2.18959e-009 3.22737e-009 8.61212e-010 -7.73091 5.47488 -0.417314 2.18959e-009 3.22737e-009 8.61201e-010 -2.90554 0.965183 -0.102902 2.18958e-009 3.22737e-009 8.61207e-010 -10.2786 0.731801 -0.0259123 2.18959e-009 3.22737e-009 8.61199e-010 -2.22167 -0.733487 0.20892 -2.03217e-016 0 -3.88251e-019 -4.401 -6.49751 -8.06948 -0.356384 39.4469 0.830585 -11.7737 -18.0394 -24.7377 2.03217e-016 0 3.88251e-019 16.0253 -15.0716 20.7211 0.549263 49.6228 -0.946479 5.0375 -18.3831 10.9509 
